<svg width="40" height="40" viewBox="0 0 40 40" fill="none" xmlns="http://www.w3.org/2000/svg">
<rect width="40" height="39.9299" rx="8" fill="#0050B6"/>
<path d="M29.3911 10.5694C29.0912 10.5694 28.7413 10.5694 28.4414 10.5694C26.3921 10.6694 24.4427 11.1192 22.5933 12.0189C20.3441 13.0686 18.4447 14.5681 16.9452 16.5674C15.8955 17.917 15.1458 19.4165 14.596 21.016C14.546 21.1159 14.596 21.1659 14.646 21.2159C15.0958 21.6658 15.5457 22.1156 15.9955 22.5655C16.0455 22.6155 16.0955 22.7154 16.0955 22.8154C16.0955 22.9154 16.0455 23.0153 15.9455 23.0653C15.8456 23.1153 15.6956 23.1153 15.6456 23.0153C15.3957 22.7654 15.1958 22.5655 14.9459 22.3156C14.646 22.0157 14.396 21.7158 14.0961 21.4658C13.9962 21.3659 13.9462 21.2159 13.9962 21.066C14.646 19.1166 15.5956 17.3172 16.9452 15.7177C18.2948 14.0683 19.9442 12.7687 21.7936 11.819C23.493 10.9193 25.3424 10.3695 27.2418 10.1196C28.0415 10.0196 28.8413 9.96963 29.641 10.0196C29.8909 10.0196 29.9409 10.1196 29.9909 10.3695C30.0909 13.6184 29.2911 16.6174 27.5417 19.4165C25.7923 22.1656 23.3931 24.2149 20.3941 25.5145C19.9442 25.7144 19.4444 25.8644 18.9445 26.0643C18.7946 26.1143 18.6946 26.1143 18.5947 25.9644C18.0948 25.4645 17.545 24.9147 17.0452 24.4149C16.9452 24.3149 16.8952 24.1649 16.9952 24.015C17.0951 23.865 17.2951 23.865 17.445 24.015C17.8949 24.4648 18.3447 24.9147 18.7946 25.3645C18.8946 25.4645 18.9445 25.4645 19.0445 25.4145C21.2438 24.6648 23.1931 23.4652 24.8426 21.8657C26.792 19.9663 28.0915 17.7171 28.8413 15.1679C29.2411 13.7684 29.4411 12.3189 29.4411 10.8193C29.4411 10.7194 29.3911 10.6694 29.3911 10.5694Z" fill="#FEFEFE"/>
<path d="M26.6449 16.4172C26.6449 18.1166 25.2953 19.4662 23.5959 19.4662C21.8964 19.4662 20.5469 18.1166 20.5469 16.4172C20.5469 14.7677 21.8964 13.3682 23.5459 13.3682C25.2953 13.3682 26.6449 14.7177 26.6449 16.4172ZM26.0451 16.4671C26.0451 15.0676 24.9454 13.968 23.5459 13.968C22.1463 13.968 21.0467 15.0676 21.0467 16.4671C21.0467 17.8667 22.1463 18.9663 23.5459 18.9663C24.9454 18.9163 26.0451 17.8167 26.0451 16.4671Z" fill="#FEFEFE"/>
<path d="M18.995 29.2136C19.3449 29.0137 19.6947 28.7638 19.9946 28.5139C20.9943 27.6141 21.5441 26.5145 21.794 25.2149C21.844 25.015 21.944 24.915 22.0939 24.915C22.2939 24.915 22.3938 25.065 22.3938 25.2649C22.3439 25.5148 22.2939 25.8147 22.1939 26.0647C21.6441 27.7641 20.6444 29.0137 19.0949 29.8634C18.745 30.0633 18.5951 29.9634 18.5451 29.6135C18.3452 28.5638 18.1452 27.4642 17.9453 26.4145C17.9453 26.3146 17.9453 26.2146 17.9453 26.1646C17.9953 26.0647 18.0953 26.0147 18.2452 26.0147C18.3452 26.0147 18.4451 26.1146 18.4951 26.2146C18.5451 26.5145 18.5951 26.8144 18.6951 27.1643C18.745 27.8641 18.895 28.5139 18.995 29.2136Z" fill="#FEFEFE"/>
<path d="M10.748 20.9658C11.0479 21.0158 11.3478 21.0657 11.5978 21.1157C12.2975 21.2657 12.9973 21.3656 13.6471 21.5156C13.6971 21.5156 13.6971 21.5156 13.7471 21.5156C13.897 21.5656 13.997 21.7155 13.947 21.8655C13.897 22.0154 13.797 22.1154 13.5971 22.0654C13.1972 21.9654 12.7474 21.9155 12.3475 21.8155C11.6977 21.6655 11.0479 21.5656 10.3482 21.4156C10.2982 21.4156 10.2982 21.4156 10.2482 21.4156C9.99829 21.3656 9.9483 21.2157 10.0483 20.9658C10.3482 20.416 10.6981 19.8661 11.1479 19.4163C12.0976 18.4166 13.2472 17.8668 14.5468 17.5669C14.5968 17.5669 14.6468 17.5669 14.6468 17.5169C14.7967 17.4669 14.9467 17.5669 14.9966 17.7168C15.0466 17.8668 14.9467 18.0167 14.7467 18.0667C14.4468 18.1667 14.0969 18.2167 13.797 18.3166C12.4975 18.7665 11.4978 19.5662 10.748 20.7159C10.798 20.8658 10.798 20.9158 10.748 20.9658Z" fill="#FEFEFE"/>
<path d="M14.2969 25.4142C14.3469 25.3643 14.3968 25.2643 14.4468 25.2143C15.3965 24.2646 16.2962 23.3649 17.2459 22.4152C17.5958 22.0653 17.8957 21.7654 18.2456 21.4156C18.3955 21.2656 18.5455 21.2656 18.6954 21.3656C18.7954 21.4655 18.7954 21.6655 18.6454 21.8154C17.5458 22.9151 16.4462 24.0647 15.2965 25.1643C15.1466 25.3143 14.9966 25.5142 14.7967 25.6642C14.6967 25.7641 14.5968 25.7641 14.4968 25.7141C14.3469 25.6642 14.2969 25.5642 14.2969 25.4142Z" fill="#FEFEFE"/>
<path d="M12.9992 26.7139C13.0992 26.7639 13.1992 26.8138 13.2492 26.9138C13.2991 27.0138 13.2492 27.1137 13.1992 27.2137C13.1492 27.2637 13.0492 27.3637 12.9992 27.4636C12.3994 28.0634 11.7996 28.7132 11.1499 29.313C11.0499 29.363 10.9999 29.413 10.8999 29.413C10.8 29.413 10.7 29.363 10.65 29.263C10.6 29.1131 10.6 29.0131 10.7 28.9131C11.0999 28.5133 11.4997 28.1134 11.8996 27.7135C12.1995 27.4136 12.4494 27.1637 12.7493 26.8638C12.8493 26.8138 12.8993 26.7639 12.9992 26.7139Z" fill="#FEFEFE"/>
<path d="M12.5477 24.665C12.7976 24.665 12.9476 24.915 12.8476 25.0649C12.7976 25.1149 12.7976 25.1649 12.7476 25.2149C12.0978 25.8646 11.4481 26.5144 10.7983 27.1642L10.7483 27.2142C10.5983 27.3142 10.4484 27.3641 10.3484 27.2142C10.2484 27.1142 10.2484 26.9143 10.3484 26.8143C10.8482 26.3145 11.3481 25.8147 11.8479 25.3148C12.0479 25.1149 12.1978 24.9649 12.3977 24.815C12.4477 24.715 12.5477 24.665 12.5477 24.665Z" fill="#FEFEFE"/>
<path d="M15.3485 27.464C15.3485 27.514 15.2985 27.564 15.2485 27.664C14.5488 28.3637 13.899 29.0135 13.1992 29.7133C13.0493 29.8633 12.8993 29.8633 12.7494 29.7133C12.6494 29.6133 12.6494 29.4134 12.7993 29.3134C13.4991 28.6137 14.1489 27.9639 14.8487 27.2641C14.9486 27.1641 15.0486 27.1142 15.1986 27.1641C15.2985 27.2141 15.3485 27.2641 15.3485 27.464Z" fill="#FEFEFE"/>
</svg>
